<mxfile host="app.diagrams.net" modified="2024-05-16T02:39:55.270Z" agent="Mozilla/5.0 (Windows NT 10.0; Win64; x64) AppleWebKit/537.36 (KHTML, like Gecko) Chrome/124.0.0.0 Safari/537.36" etag="x_kd3al70I3O1LYtOENk" version="24.4.2" type="device">
  <diagram name="Page-1" id="lyjrg8dCrHLqc1WPOzPA">
    <mxGraphModel dx="1900" dy="583" grid="1" gridSize="10" guides="1" tooltips="1" connect="1" arrows="1" fold="1" page="1" pageScale="1" pageWidth="850" pageHeight="1100" math="0" shadow="0">
      <root>
        <mxCell id="0" />
        <mxCell id="1" parent="0" />
        <mxCell id="gPxtbIe_l_NdupF15zAG-1" value="" style="rounded=0;whiteSpace=wrap;html=1;fillColor=#dae8fc;strokeColor=#6c8ebf;" parent="1" vertex="1">
          <mxGeometry x="400" y="120" width="250" height="120" as="geometry" />
        </mxCell>
        <mxCell id="gPxtbIe_l_NdupF15zAG-2" value="&lt;b&gt;terraform-aws-ec2&lt;/b&gt;" style="text;html=1;align=center;verticalAlign=middle;resizable=0;points=[];autosize=1;strokeColor=none;fillColor=none;" parent="1" vertex="1">
          <mxGeometry x="450" y="120" width="130" height="30" as="geometry" />
        </mxCell>
        <mxCell id="gPxtbIe_l_NdupF15zAG-6" style="edgeStyle=orthogonalEdgeStyle;rounded=0;orthogonalLoop=1;jettySize=auto;html=1;entryX=0;entryY=0.5;entryDx=0;entryDy=0;" parent="1" source="gPxtbIe_l_NdupF15zAG-3" target="gPxtbIe_l_NdupF15zAG-1" edge="1">
          <mxGeometry relative="1" as="geometry" />
        </mxCell>
        <mxCell id="gPxtbIe_l_NdupF15zAG-3" value="" style="rounded=1;whiteSpace=wrap;html=1;fillColor=#d5e8d4;strokeColor=#82b366;" parent="1" vertex="1">
          <mxGeometry x="80" y="120" width="200" height="120" as="geometry" />
        </mxCell>
        <mxCell id="gPxtbIe_l_NdupF15zAG-4" value="&lt;b&gt;terraform-ec2-test&lt;/b&gt;" style="text;html=1;align=center;verticalAlign=middle;resizable=0;points=[];autosize=1;strokeColor=none;fillColor=none;" parent="1" vertex="1">
          <mxGeometry x="110" y="120" width="130" height="30" as="geometry" />
        </mxCell>
        <mxCell id="gPxtbIe_l_NdupF15zAG-5" value="" style="sketch=0;outlineConnect=0;fontColor=#232F3E;gradientColor=none;fillColor=#232F3D;strokeColor=none;dashed=0;verticalLabelPosition=bottom;verticalAlign=top;align=center;html=1;fontSize=12;fontStyle=0;aspect=fixed;pointerEvents=1;shape=mxgraph.aws4.source_code;" parent="1" vertex="1">
          <mxGeometry x="499.42" y="150" width="51.15" height="70" as="geometry" />
        </mxCell>
        <mxCell id="gPxtbIe_l_NdupF15zAG-7" value="&lt;b&gt;inputs&lt;/b&gt;" style="text;html=1;align=center;verticalAlign=middle;resizable=0;points=[];autosize=1;strokeColor=none;fillColor=none;" parent="1" vertex="1">
          <mxGeometry x="300" y="140" width="60" height="30" as="geometry" />
        </mxCell>
        <mxCell id="gPxtbIe_l_NdupF15zAG-8" value="" style="rounded=1;whiteSpace=wrap;html=1;fillColor=#d5e8d4;strokeColor=#82b366;" parent="1" vertex="1">
          <mxGeometry x="80" y="300" width="200" height="120" as="geometry" />
        </mxCell>
        <mxCell id="gPxtbIe_l_NdupF15zAG-9" value="" style="rounded=1;whiteSpace=wrap;html=1;fillColor=#d5e8d4;strokeColor=#82b366;" parent="1" vertex="1">
          <mxGeometry x="340" y="300" width="200" height="120" as="geometry" />
        </mxCell>
        <mxCell id="gPxtbIe_l_NdupF15zAG-10" style="edgeStyle=orthogonalEdgeStyle;rounded=0;orthogonalLoop=1;jettySize=auto;html=1;entryX=0.011;entryY=0.85;entryDx=0;entryDy=0;entryPerimeter=0;" parent="1" source="gPxtbIe_l_NdupF15zAG-8" target="gPxtbIe_l_NdupF15zAG-1" edge="1">
          <mxGeometry relative="1" as="geometry">
            <Array as="points">
              <mxPoint x="300" y="360" />
              <mxPoint x="300" y="222" />
            </Array>
          </mxGeometry>
        </mxCell>
        <mxCell id="gPxtbIe_l_NdupF15zAG-11" style="edgeStyle=orthogonalEdgeStyle;rounded=0;orthogonalLoop=1;jettySize=auto;html=1;entryX=0.146;entryY=0.99;entryDx=0;entryDy=0;entryPerimeter=0;" parent="1" source="gPxtbIe_l_NdupF15zAG-9" target="gPxtbIe_l_NdupF15zAG-1" edge="1">
          <mxGeometry relative="1" as="geometry" />
        </mxCell>
        <mxCell id="gPxtbIe_l_NdupF15zAG-12" value="&lt;b&gt;Module development&lt;/b&gt;" style="text;html=1;align=center;verticalAlign=middle;resizable=0;points=[];autosize=1;strokeColor=none;fillColor=none;" parent="1" vertex="1">
          <mxGeometry x="455" y="90" width="140" height="30" as="geometry" />
        </mxCell>
        <mxCell id="gPxtbIe_l_NdupF15zAG-13" value="&lt;b&gt;Module Usage&lt;/b&gt;" style="text;html=1;align=center;verticalAlign=middle;resizable=0;points=[];autosize=1;strokeColor=none;fillColor=none;" parent="1" vertex="1">
          <mxGeometry x="130" y="90" width="100" height="30" as="geometry" />
        </mxCell>
        <mxCell id="qxzyCH4XNnUvxnCN3fc5-2" value="" style="rounded=1;whiteSpace=wrap;html=1;fillColor=#dae8fc;strokeColor=#6c8ebf;" parent="1" vertex="1">
          <mxGeometry x="180" y="580" width="600" height="350" as="geometry" />
        </mxCell>
        <mxCell id="qxzyCH4XNnUvxnCN3fc5-16" style="edgeStyle=orthogonalEdgeStyle;rounded=0;orthogonalLoop=1;jettySize=auto;html=1;entryX=1;entryY=0.5;entryDx=0;entryDy=0;" parent="1" source="qxzyCH4XNnUvxnCN3fc5-3" target="qxzyCH4XNnUvxnCN3fc5-9" edge="1">
          <mxGeometry relative="1" as="geometry" />
        </mxCell>
        <mxCell id="qxzyCH4XNnUvxnCN3fc5-3" value="&lt;b&gt;Public&lt;/b&gt;" style="rounded=1;whiteSpace=wrap;html=1;fillColor=#ffe6cc;strokeColor=#d79b00;" parent="1" vertex="1">
          <mxGeometry x="270" y="660" width="120" height="60" as="geometry" />
        </mxCell>
        <mxCell id="qxzyCH4XNnUvxnCN3fc5-17" style="edgeStyle=orthogonalEdgeStyle;rounded=0;orthogonalLoop=1;jettySize=auto;html=1;" parent="1" source="qxzyCH4XNnUvxnCN3fc5-4" edge="1">
          <mxGeometry relative="1" as="geometry">
            <mxPoint x="250" y="750" as="targetPoint" />
          </mxGeometry>
        </mxCell>
        <mxCell id="qxzyCH4XNnUvxnCN3fc5-4" value="&lt;b&gt;Public&lt;/b&gt;" style="rounded=1;whiteSpace=wrap;html=1;fillColor=#ffe6cc;strokeColor=#d79b00;" parent="1" vertex="1">
          <mxGeometry x="270" y="790" width="120" height="60" as="geometry" />
        </mxCell>
        <mxCell id="qxzyCH4XNnUvxnCN3fc5-12" style="edgeStyle=orthogonalEdgeStyle;rounded=0;orthogonalLoop=1;jettySize=auto;html=1;" parent="1" source="qxzyCH4XNnUvxnCN3fc5-5" edge="1">
          <mxGeometry relative="1" as="geometry">
            <mxPoint x="530" y="640" as="targetPoint" />
          </mxGeometry>
        </mxCell>
        <mxCell id="qxzyCH4XNnUvxnCN3fc5-5" value="&lt;b&gt;Ministry&lt;/b&gt;" style="rounded=1;whiteSpace=wrap;html=1;fillColor=#d5e8d4;strokeColor=#82b366;" parent="1" vertex="1">
          <mxGeometry x="450" y="660" width="120" height="60" as="geometry" />
        </mxCell>
        <mxCell id="qxzyCH4XNnUvxnCN3fc5-19" style="edgeStyle=orthogonalEdgeStyle;rounded=0;orthogonalLoop=1;jettySize=auto;html=1;entryX=1;entryY=0.5;entryDx=0;entryDy=0;" parent="1" source="qxzyCH4XNnUvxnCN3fc5-6" target="qxzyCH4XNnUvxnCN3fc5-13" edge="1">
          <mxGeometry relative="1" as="geometry" />
        </mxCell>
        <mxCell id="qxzyCH4XNnUvxnCN3fc5-6" value="&lt;b&gt;Ministry&lt;/b&gt;" style="rounded=1;whiteSpace=wrap;html=1;fillColor=#d5e8d4;strokeColor=#82b366;" parent="1" vertex="1">
          <mxGeometry x="450" y="790" width="120" height="60" as="geometry" />
        </mxCell>
        <mxCell id="qxzyCH4XNnUvxnCN3fc5-11" style="edgeStyle=orthogonalEdgeStyle;rounded=0;orthogonalLoop=1;jettySize=auto;html=1;entryX=0.5;entryY=0;entryDx=0;entryDy=0;" parent="1" source="qxzyCH4XNnUvxnCN3fc5-7" target="qxzyCH4XNnUvxnCN3fc5-3" edge="1">
          <mxGeometry relative="1" as="geometry">
            <Array as="points">
              <mxPoint x="690" y="640" />
              <mxPoint x="330" y="640" />
            </Array>
          </mxGeometry>
        </mxCell>
        <mxCell id="fXjQob1jn227JEy0SRil-10" style="edgeStyle=orthogonalEdgeStyle;rounded=0;orthogonalLoop=1;jettySize=auto;html=1;entryX=1;entryY=0.5;entryDx=0;entryDy=0;" edge="1" parent="1" source="qxzyCH4XNnUvxnCN3fc5-7" target="qxzyCH4XNnUvxnCN3fc5-2">
          <mxGeometry relative="1" as="geometry" />
        </mxCell>
        <mxCell id="qxzyCH4XNnUvxnCN3fc5-7" value="&lt;b&gt;PMO&lt;/b&gt;" style="rounded=1;whiteSpace=wrap;html=1;fillColor=#f8cecc;strokeColor=#b85450;" parent="1" vertex="1">
          <mxGeometry x="630" y="660" width="120" height="60" as="geometry" />
        </mxCell>
        <mxCell id="qxzyCH4XNnUvxnCN3fc5-14" style="edgeStyle=orthogonalEdgeStyle;rounded=0;orthogonalLoop=1;jettySize=auto;html=1;entryX=0.75;entryY=1;entryDx=0;entryDy=0;" parent="1" source="qxzyCH4XNnUvxnCN3fc5-8" target="qxzyCH4XNnUvxnCN3fc5-4" edge="1">
          <mxGeometry relative="1" as="geometry">
            <Array as="points">
              <mxPoint x="690" y="870" />
              <mxPoint x="360" y="870" />
            </Array>
          </mxGeometry>
        </mxCell>
        <mxCell id="qxzyCH4XNnUvxnCN3fc5-8" value="&lt;b&gt;PMO&lt;/b&gt;" style="rounded=1;whiteSpace=wrap;html=1;fillColor=#f8cecc;strokeColor=#b85450;" parent="1" vertex="1">
          <mxGeometry x="630" y="790" width="120" height="60" as="geometry" />
        </mxCell>
        <mxCell id="qxzyCH4XNnUvxnCN3fc5-18" style="edgeStyle=orthogonalEdgeStyle;rounded=0;orthogonalLoop=1;jettySize=auto;html=1;" parent="1" source="qxzyCH4XNnUvxnCN3fc5-9" target="qxzyCH4XNnUvxnCN3fc5-15" edge="1">
          <mxGeometry relative="1" as="geometry" />
        </mxCell>
        <mxCell id="qxzyCH4XNnUvxnCN3fc5-9" value="&lt;b&gt;Arch&lt;/b&gt;" style="rounded=0;whiteSpace=wrap;html=1;fillColor=#e1d5e7;strokeColor=#9673a6;" parent="1" vertex="1">
          <mxGeometry x="115" y="725" width="120" height="60" as="geometry" />
        </mxCell>
        <mxCell id="qxzyCH4XNnUvxnCN3fc5-10" value="" style="ellipse;whiteSpace=wrap;html=1;" parent="1" vertex="1">
          <mxGeometry x="360" y="670" width="30" height="40" as="geometry" />
        </mxCell>
        <mxCell id="qxzyCH4XNnUvxnCN3fc5-13" value="&lt;b&gt;NAT&lt;/b&gt;" style="ellipse;whiteSpace=wrap;html=1;" parent="1" vertex="1">
          <mxGeometry x="350" y="800" width="30" height="40" as="geometry" />
        </mxCell>
        <mxCell id="qxzyCH4XNnUvxnCN3fc5-15" value="Actor" style="shape=umlActor;verticalLabelPosition=bottom;verticalAlign=top;html=1;outlineConnect=0;" parent="1" vertex="1">
          <mxGeometry x="-40" y="720" width="30" height="60" as="geometry" />
        </mxCell>
        <mxCell id="fXjQob1jn227JEy0SRil-1" value="" style="rounded=0;whiteSpace=wrap;html=1;fillColor=#ffe6cc;strokeColor=#d79b00;" vertex="1" parent="1">
          <mxGeometry x="950" y="590" width="440" height="340" as="geometry" />
        </mxCell>
        <mxCell id="fXjQob1jn227JEy0SRil-2" value="" style="endArrow=none;html=1;rounded=0;exitX=1;exitY=0.5;exitDx=0;exitDy=0;entryX=0.004;entryY=0.48;entryDx=0;entryDy=0;entryPerimeter=0;" edge="1" parent="1" source="fXjQob1jn227JEy0SRil-3" target="fXjQob1jn227JEy0SRil-1">
          <mxGeometry width="50" height="50" relative="1" as="geometry">
            <mxPoint x="780" y="700" as="sourcePoint" />
            <mxPoint x="830" y="650" as="targetPoint" />
          </mxGeometry>
        </mxCell>
        <mxCell id="fXjQob1jn227JEy0SRil-4" value="" style="endArrow=none;html=1;rounded=0;exitX=1;exitY=0.5;exitDx=0;exitDy=0;entryX=0.004;entryY=0.48;entryDx=0;entryDy=0;entryPerimeter=0;" edge="1" parent="1" source="qxzyCH4XNnUvxnCN3fc5-2" target="fXjQob1jn227JEy0SRil-3">
          <mxGeometry width="50" height="50" relative="1" as="geometry">
            <mxPoint x="780" y="755" as="sourcePoint" />
            <mxPoint x="932" y="753" as="targetPoint" />
          </mxGeometry>
        </mxCell>
        <mxCell id="fXjQob1jn227JEy0SRil-3" value="" style="outlineConnect=0;dashed=0;verticalLabelPosition=bottom;verticalAlign=top;align=center;html=1;shape=mxgraph.aws3.vpc_peering;fillColor=#F58534;gradientColor=none;" vertex="1" parent="1">
          <mxGeometry x="830" y="720" width="69" height="72" as="geometry" />
        </mxCell>
        <mxCell id="fXjQob1jn227JEy0SRil-5" value="&lt;b&gt;PIN CODE-1&lt;/b&gt;" style="text;html=1;align=center;verticalAlign=middle;resizable=0;points=[];autosize=1;strokeColor=none;fillColor=none;" vertex="1" parent="1">
          <mxGeometry x="400" y="540" width="90" height="30" as="geometry" />
        </mxCell>
        <mxCell id="fXjQob1jn227JEy0SRil-6" value="&lt;b&gt;PIN CODE-2&lt;/b&gt;" style="text;html=1;align=center;verticalAlign=middle;resizable=0;points=[];autosize=1;strokeColor=none;fillColor=none;" vertex="1" parent="1">
          <mxGeometry x="1140" y="550" width="90" height="30" as="geometry" />
        </mxCell>
        <mxCell id="fXjQob1jn227JEy0SRil-7" value="&lt;b&gt;Requestor&lt;/b&gt;" style="text;html=1;align=center;verticalAlign=middle;resizable=0;points=[];autosize=1;strokeColor=none;fillColor=none;" vertex="1" parent="1">
          <mxGeometry x="560" y="538" width="80" height="30" as="geometry" />
        </mxCell>
        <mxCell id="fXjQob1jn227JEy0SRil-8" value="&lt;b&gt;Acceptor&lt;/b&gt;" style="text;html=1;align=center;verticalAlign=middle;resizable=0;points=[];autosize=1;strokeColor=none;fillColor=none;" vertex="1" parent="1">
          <mxGeometry x="990" y="560" width="80" height="30" as="geometry" />
        </mxCell>
        <mxCell id="fXjQob1jn227JEy0SRil-11" style="edgeStyle=orthogonalEdgeStyle;rounded=0;orthogonalLoop=1;jettySize=auto;html=1;" edge="1" parent="1" source="fXjQob1jn227JEy0SRil-9">
          <mxGeometry relative="1" as="geometry">
            <mxPoint x="930" y="760" as="targetPoint" />
          </mxGeometry>
        </mxCell>
        <mxCell id="fXjQob1jn227JEy0SRil-9" value="&lt;b&gt;Ministry&lt;/b&gt;" style="rounded=1;whiteSpace=wrap;html=1;fillColor=#d5e8d4;strokeColor=#82b366;" vertex="1" parent="1">
          <mxGeometry x="1010" y="660" width="120" height="60" as="geometry" />
        </mxCell>
      </root>
    </mxGraphModel>
  </diagram>
</mxfile>
